<svg width="64" height="57" viewBox="0 0 64 57" fill="none" xmlns="http://www.w3.org/2000/svg">
<path d="M38.2887 45.2286C36.6882 45.8998 36.017 47.81 36.7398 49.3589L39.2696 54.6767C39.9925 56.1734 41.7478 56.8451 43.2967 56.1734C47.6852 54.3148 51.4541 51.8882 54.4486 48.9454C58.1143 45.4867 60.5925 41.5113 61.9348 37.1228C63.2772 32.6822 64 26.6421 64 18.9494L64 3.09921C64 1.39545 62.606 0.00146091 60.9023 0.00146076L40.612 0.00145898C38.9082 0.00145884 37.5143 1.39544 37.5143 3.09921L37.5143 23.3895C37.5143 25.0937 38.9082 26.4872 40.612 26.4872L50.3183 26.4872C50.215 31.7023 48.9759 35.8837 46.7042 39.0336C44.8456 41.5624 42.0576 43.6276 38.2887 45.2286Z" fill="#2E6EFF"/>
<path d="M1.83716 45.2277C0.236653 45.8989 -0.434009 47.8092 0.288283 49.358L2.81811 54.6237C3.54092 56.1209 5.29631 56.7921 6.84518 56.1209C11.182 54.2623 14.8998 51.8357 17.9454 48.9445C21.6116 45.4337 24.1409 41.4583 25.4838 37.0698C26.8262 32.7335 27.4968 26.6923 27.4968 18.948L27.4968 3.09782C27.4968 1.39405 26.1029 6.85427e-05 24.3991 6.83937e-05L4.10884 6.66199e-05C2.40508 6.6471e-05 1.0111 1.39405 1.0111 3.09781L1.01109 23.3881C1.01109 25.0923 2.40508 26.4858 4.10884 26.4858L13.8667 26.4858C13.7635 31.7009 12.5239 35.8823 10.2527 39.0322C8.39406 41.5615 5.60608 43.6267 1.83716 45.2277Z" fill="#2E6EFF"/>
</svg>
