<svg width="168" height="37" viewBox="0 0 168 37" fill="none" xmlns="http://www.w3.org/2000/svg">
<path fill-rule="evenodd" clip-rule="evenodd" d="M0.0569902 0.669945C-0.02358 0.800317 -0.0181044 1.09366 0.0695059 1.32181C0.192056 1.64096 0.612638 1.73639 1.89863 1.73639H3.56844L3.43207 22.2049L1.73723 22.3352C0.462449 22.4333 0.0423885 22.5626 0.0423885 22.8567C0.0423885 23.1894 0.848612 23.2583 5.45285 23.3183C10.7308 23.3871 10.8633 23.3759 10.8633 22.8619C10.8633 22.3874 10.6951 22.3352 9.16846 22.3352H7.47362V11.5678L9.74445 11.7422C13.2927 12.015 13.8345 12.6347 14.2668 16.9154C14.7179 21.3804 15.2055 22.4966 17.0477 23.2815C18.8554 24.0517 22.4931 23.4429 22.2829 22.4054C22.1875 21.9347 21.9105 21.9087 20.3385 22.2229C19.1091 22.4685 18.7347 21.6985 18.4155 18.2702C18.27 16.7055 18.0226 15.0148 17.8659 14.5129C17.4761 13.265 16.2135 12.0001 14.83 11.4718L13.6775 11.0317L14.5711 10.5733C18.7647 8.42189 18.5149 3.09018 14.1244 1.04568C12.8708 0.46187 12.5681 0.437621 6.51121 0.435274C3.00132 0.43371 0.138603 0.538008 0.0569902 0.669945ZM79.7469 1.01934C79.8217 1.54631 79.9962 1.61384 81.46 1.68372L83.0897 1.76116V22.3352H81.3948C79.8739 22.3352 79.7 22.3887 79.7 22.8567C79.7 23.3613 79.8739 23.3782 85.0453 23.3782C90.1731 23.3782 90.3905 23.3576 90.3905 22.8692C90.3905 22.4268 90.177 22.3498 88.7609 22.2826L87.1312 22.2049L86.9894 12.4269H96.6484V22.3352H94.9536C93.4326 22.3352 93.2587 22.3887 93.2587 22.8567C93.2587 23.3613 93.4326 23.3782 98.604 23.3782C103.775 23.3782 103.949 23.3613 103.949 22.8567C103.949 22.3887 103.775 22.3352 102.254 22.3352H100.56V1.76116L102.189 1.68372C103.653 1.61384 103.827 1.54631 103.902 1.01934L103.986 0.432667H93.2225L93.3057 1.01934C93.3805 1.54631 93.5549 1.61384 95.0188 1.68372L96.6484 1.76116V11.1232H87.0008V1.73639H88.6957C90.3298 1.73639 90.3905 1.71292 90.3905 1.08453V0.432667H79.6637L79.7469 1.01934ZM7.66918 1.62479C7.56149 1.73405 7.47362 3.81557 7.47362 6.25067V10.6781L9.44225 10.5118C10.5249 10.4202 11.6382 10.2236 11.9165 10.0748C12.8517 9.57412 13.3167 8.26831 13.307 6.16906C13.2966 3.92352 12.8176 2.73374 11.6899 2.15045C10.8404 1.7111 7.95548 1.33406 7.66918 1.62479ZM114.169 3.31077C110.011 4.15741 106.407 8.34263 106.096 12.6846C105.722 17.9141 108.825 22.3467 113.704 23.5508C115.153 23.9083 115.734 23.9339 117.014 23.6956C120.197 23.1037 122.821 21.05 124.343 17.9599C125.147 16.3272 125.2 16.0513 125.2 13.4762C125.2 10.9516 125.136 10.5965 124.396 9.03647C122.482 4.99649 118.057 2.51915 114.169 3.31077ZM22.3822 4.14229C22.4558 4.66065 22.6383 4.74487 23.8354 4.8137L25.2043 4.89271L25.2105 11.5931C25.2139 15.2784 25.3234 18.7544 25.4541 19.3174C26.2345 22.6826 29.729 24.4327 34.1059 23.6504C35.637 23.3769 36.075 23.1655 37.1923 22.1611C39.1515 20.3995 39.2845 19.7286 39.2845 11.6111V4.89271L40.6534 4.8137C41.8461 4.74513 42.033 4.65934 42.1058 4.14828C42.1887 3.56447 42.1715 3.56161 38.6326 3.56161C35.0938 3.56161 35.0766 3.56447 35.1595 4.14828C35.2323 4.65934 35.4192 4.74513 36.6119 4.8137L37.9808 4.89271L37.975 11.8538C37.9685 19.733 37.8543 20.3059 36.009 21.7136C35.1074 22.4015 34.8406 22.4656 32.8798 22.4656C31.1052 22.4656 30.6353 22.3759 30.1506 21.9441C28.856 20.7914 28.7499 20.1082 28.6446 12.2452L28.5462 4.89271L30.0693 4.81396C31.3923 4.74539 31.5925 4.66638 31.5925 4.21347C31.5925 3.71414 31.3949 3.68885 26.9453 3.6208L22.2983 3.54935L22.3822 4.14229ZM42.8304 3.78063C42.7436 3.92117 42.7441 4.22259 42.8317 4.45075C42.9498 4.75869 43.3521 4.86533 44.3969 4.86533H45.8031V22.3092L44.3039 22.3874C43.1798 22.4461 42.8046 22.5634 42.8046 22.8567C42.8046 23.1808 43.5427 23.2812 47.1069 23.4421C49.8275 23.5649 52.0216 23.5357 53.0751 23.3631C56.6671 22.7736 58.582 21.0378 58.7885 18.1844C58.9562 15.8656 57.8686 14.1027 55.7221 13.2136C54.9631 12.8991 54.6432 12.4269 55.1892 12.4269C55.7185 12.4269 57.5171 10.5386 57.7977 9.68807C58.4407 7.74004 57.4282 5.58499 55.3203 4.41528C54.0273 3.69798 53.9712 3.6912 48.5024 3.60854C45.0897 3.55691 42.9282 3.62236 42.8304 3.78063ZM59.9303 4.14828C60.0012 4.64761 60.1957 4.74669 61.2364 4.8137L62.459 4.89271L68.2272 15.0438V22.3352H66.7931C65.5329 22.3352 65.359 22.3983 65.359 22.8567C65.359 23.3589 65.5329 23.3782 70.0524 23.3782C74.5719 23.3782 74.7458 23.3589 74.7458 22.8567C74.7458 22.3983 74.5719 22.3352 73.3117 22.3352H71.8776V14.025L76.7014 4.88019L77.8878 4.87289C79.1451 4.86481 79.7487 4.51333 79.5214 3.92091C79.415 3.64374 78.6789 3.56161 76.2978 3.56161C74.6006 3.56161 73.1462 3.66825 73.0656 3.79888C72.7107 4.37278 73.2588 4.86533 74.2522 4.86533C74.8105 4.86533 75.2673 4.93182 75.2673 5.01291C75.2673 5.31121 71.22 12.6804 71.0545 12.684C70.8897 12.6874 66.6627 5.3292 66.6627 5.03873C66.6627 4.96076 67.1029 4.86038 67.6405 4.81579C68.4259 4.75086 68.6348 4.61945 68.7018 4.14828L68.7849 3.56161H59.8471L59.9303 4.14828ZM127.255 3.94021C126.999 4.60615 127.414 4.86533 128.735 4.86533H130.024V22.3352H128.59C127.329 22.3352 127.156 22.3983 127.156 22.8567C127.156 23.3524 127.329 23.3782 130.676 23.3782C134.022 23.3782 134.196 23.3524 134.196 22.8567C134.196 22.3983 134.022 22.3352 132.762 22.3352H131.327V14.8605C131.327 10.7496 131.381 7.43941 131.447 7.50511C131.512 7.57056 132.785 11.1396 134.275 15.4359C135.953 20.2741 137.124 23.2742 137.35 23.3175C137.611 23.367 138.31 21.644 139.784 17.3203C140.922 13.9836 142.178 10.3736 142.575 9.298L143.296 7.34241L143.322 22.3352H141.888C140.627 22.3352 140.454 22.3983 140.454 22.8567C140.454 23.3589 140.627 23.3782 145.147 23.3782C149.666 23.3782 149.84 23.3589 149.84 22.8567C149.84 22.3983 149.666 22.3352 148.406 22.3352H146.972V4.89271L148.341 4.8137C149.539 4.74487 149.72 4.66091 149.794 4.14046L149.879 3.5457L143.238 3.69198L141.843 7.73353C141.075 9.95638 140.02 12.9941 139.497 14.4837L138.546 17.1923L133.874 3.56161H130.637C128.048 3.56161 127.371 3.63748 127.255 3.94021ZM150.669 4.14437C150.742 4.66012 150.927 4.74487 152.122 4.8137L153.491 4.89271V22.3352H152.057C150.793 22.3352 150.623 22.3978 150.623 22.8604C150.623 23.3772 150.754 23.3842 159.162 23.3167L167.701 23.2479V20.1189C167.701 17.1874 167.669 16.99 167.191 16.99C166.815 16.99 166.597 17.283 166.356 18.1125C165.888 19.7309 165.077 20.9186 163.973 21.6036C163.149 22.1144 162.579 22.2158 160.075 22.2969L157.141 22.3916V13.4699H158.302C160.344 13.4699 161.184 14.2297 161.69 16.5347C161.821 17.131 162.024 17.3811 162.377 17.3811C162.852 17.3811 162.878 17.1441 162.878 12.799C162.878 8.66491 162.835 8.22503 162.444 8.30117C162.19 8.35045 161.835 8.90792 161.588 9.64635C160.939 11.5863 160.24 12.1662 158.548 12.1662H157.141V4.82048L160.119 4.90809C162.872 4.98892 163.152 5.04525 163.805 5.64757C164.194 6.00609 164.792 6.92365 165.134 7.68659C165.586 8.69489 165.879 9.05003 166.207 8.98667C166.599 8.91105 166.658 8.558 166.658 6.29578V3.69198L150.585 3.55404L150.669 4.14437ZM113.544 4.69898C111.055 5.80349 109.953 8.5773 109.948 13.7479C109.943 19.5703 111.484 22.2985 114.917 22.5467C117.062 22.7019 118.157 22.4359 119.222 21.5014C120.928 20.0029 121.444 18.1005 121.438 13.321C121.432 8.47404 120.479 5.9881 118.206 4.88775C116.943 4.27605 114.701 4.18531 113.544 4.69898ZM49.3884 4.7566C49.281 4.86429 49.1928 6.5753 49.1928 8.55931V12.1662H50.8731C52.2693 12.1662 52.6761 12.0608 53.2784 11.5425C53.9285 10.9835 54.0137 10.717 54.1019 8.97337C54.2064 6.90514 53.8104 5.64313 52.9058 5.16023C52.2735 4.82283 49.6259 4.51906 49.3884 4.7566ZM49.1928 22.3923L51.132 22.2943C52.7353 22.2135 53.1853 22.0888 53.7319 21.5757C54.6758 20.6889 55.0116 19.4225 54.8737 17.2711C54.6807 14.267 53.8424 13.4699 50.8754 13.4699H49.1928V22.3923ZM0.306002 33.5423C0.21448 33.6904 0.299222 33.8729 0.49426 33.9478C1.1529 34.2004 8.38936 33.9509 8.32156 33.6777C8.23239 33.3165 0.52607 33.1867 0.306002 33.5423ZM158.839 33.5423C158.747 33.6904 158.832 33.8729 159.027 33.9478C159.686 34.2004 166.922 33.9509 166.855 33.6777C166.765 33.3165 159.059 33.1867 158.839 33.5423Z" fill="#BF3448"/>
<path d="M15.1994 35.483H16.9151V36.1547H14.3671V31.0806H15.1994V35.483Z" fill="#BF3448"/>
<path d="M22.3786 31.0806V34.3149C22.3786 34.6994 22.4783 34.989 22.6779 35.1837C22.8823 35.3784 23.1646 35.4757 23.5248 35.4757C23.8898 35.4757 24.1721 35.3784 24.3717 35.1837C24.5761 34.989 24.6783 34.6994 24.6783 34.3149V31.0806H25.5106V34.3003C25.5106 34.714 25.4206 35.0645 25.2405 35.3516C25.0604 35.6388 24.8195 35.853 24.5177 35.9941C24.2159 36.1353 23.8825 36.2058 23.5175 36.2058C23.1524 36.2058 22.819 36.1353 22.5173 35.9941C22.2204 35.853 21.9843 35.6388 21.8091 35.3516C21.6339 35.0645 21.5463 34.714 21.5463 34.3003V31.0806H22.3786Z" fill="#BF3448"/>
<path d="M32.8657 33.6213L34.4427 36.1547H33.5082L32.362 34.3149L31.2887 36.1547H30.3615L31.9385 33.6213L30.3542 31.0806H31.2887L32.4423 32.935L33.5228 31.0806H34.45L32.8657 33.6213Z" fill="#BF3448"/>
<path d="M40.1239 31.0806V34.3149C40.1239 34.6994 40.2237 34.989 40.4233 35.1837C40.6277 35.3784 40.91 35.4757 41.2702 35.4757C41.6352 35.4757 41.9175 35.3784 42.1171 35.1837C42.3215 34.989 42.4237 34.6994 42.4237 34.3149V31.0806H43.256V34.3003C43.256 34.714 43.1659 35.0645 42.9859 35.3516C42.8058 35.6388 42.5648 35.853 42.2631 35.9941C41.9613 36.1353 41.6279 36.2058 41.2629 36.2058C40.8978 36.2058 40.5644 36.1353 40.2626 35.9941C39.9657 35.853 39.7297 35.6388 39.5545 35.3516C39.3792 35.0645 39.2916 34.714 39.2916 34.3003V31.0806H40.1239Z" fill="#BF3448"/>
<path d="M50.9177 36.1547L49.7496 34.1251H49.1144V36.1547H48.2821V31.0806H50.0343C50.4237 31.0806 50.7522 31.1488 51.0199 31.2851C51.2925 31.4213 51.4945 31.6039 51.6259 31.8326C51.7622 32.0614 51.8303 32.3169 51.8303 32.5992C51.8303 32.9302 51.733 33.2319 51.5383 33.5045C51.3485 33.7722 51.054 33.9547 50.6549 34.0521L51.9106 36.1547H50.9177ZM49.1144 33.4607H50.0343C50.3458 33.4607 50.5795 33.3828 50.7352 33.2271C50.8958 33.0713 50.9761 32.862 50.9761 32.5992C50.9761 32.3364 50.8983 32.132 50.7425 31.9859C50.5868 31.835 50.3507 31.7596 50.0343 31.7596H49.1144V33.4607Z" fill="#BF3448"/>
<path d="M60.5975 31.0806L58.9183 34.3149V36.1547H58.086V34.3149L56.3995 31.0806H57.3267L58.5021 33.5702L59.6776 31.0806H60.5975Z" fill="#BF3448"/>
<path d="M73.675 36.1547L72.5069 34.1251H71.8717V36.1547H71.0394V31.0806H72.7916C73.181 31.0806 73.5095 31.1488 73.7772 31.2851C74.0498 31.4213 74.2518 31.6039 74.3832 31.8326C74.5195 32.0614 74.5876 32.3169 74.5876 32.5992C74.5876 32.9302 74.4903 33.2319 74.2956 33.5045C74.1058 33.7722 73.8113 33.9547 73.4122 34.0521L74.6679 36.1547H73.675ZM71.8717 33.4607H72.7916C73.1031 33.4607 73.3367 33.3828 73.4925 33.2271C73.6531 33.0713 73.7334 32.862 73.7334 32.5992C73.7334 32.3364 73.6556 32.132 73.4998 31.9859C73.344 31.835 73.108 31.7596 72.7916 31.7596H71.8717V33.4607Z" fill="#BF3448"/>
<path d="M80.4271 31.7523V33.2417H82.1793V33.9207H80.4271V35.4757H82.3984V36.1547H79.5948V31.0733H82.3984V31.7523H80.4271Z" fill="#BF3448"/>
<path d="M90.425 35.118H88.3005L87.9354 36.1547H87.0666L88.8845 31.0733H89.8482L91.6662 36.1547H90.7901L90.425 35.118ZM90.1914 34.439L89.3664 32.0808L88.5341 34.439H90.1914Z" fill="#BF3448"/>
<path d="M97.2314 35.483H98.9471V36.1547H96.3991V31.0806H97.2314V35.483Z" fill="#BF3448"/>
<path d="M110.257 31.7523V33.2417H112.009V33.9207H110.257V35.4757H112.228V36.1547H109.425V31.0733H112.228V31.7523H110.257Z" fill="#BF3448"/>
<path d="M118.868 36.2058C118.527 36.2058 118.22 36.1474 117.948 36.0306C117.675 35.9089 117.461 35.7386 117.305 35.5196C117.149 35.3005 117.072 35.045 117.072 34.753H117.962C117.982 34.972 118.067 35.1521 118.218 35.2932C118.374 35.4344 118.59 35.5049 118.868 35.5049C119.155 35.5049 119.379 35.4368 119.539 35.3005C119.7 35.1594 119.78 34.9793 119.78 34.7603C119.78 34.5899 119.729 34.4512 119.627 34.3441C119.53 34.237 119.405 34.1543 119.255 34.0959C119.108 34.0375 118.904 33.9742 118.641 33.9061C118.31 33.8185 118.04 33.7308 117.831 33.6432C117.626 33.5508 117.451 33.4096 117.305 33.2198C117.159 33.03 117.086 32.7769 117.086 32.4605C117.086 32.1685 117.159 31.9129 117.305 31.6939C117.451 31.4749 117.656 31.307 117.918 31.1901C118.181 31.0733 118.485 31.0149 118.831 31.0149C119.323 31.0149 119.724 31.139 120.036 31.3873C120.352 31.6306 120.527 31.9665 120.561 32.3948H119.641C119.627 32.2098 119.539 32.0516 119.379 31.9202C119.218 31.7888 119.006 31.7231 118.743 31.7231C118.505 31.7231 118.31 31.7839 118.159 31.9056C118.009 32.0273 117.933 32.2025 117.933 32.4313C117.933 32.587 117.979 32.716 118.072 32.8182C118.169 32.9156 118.291 32.9935 118.437 33.0519C118.583 33.1103 118.782 33.1735 119.035 33.2417C119.371 33.3342 119.644 33.4266 119.853 33.5191C120.067 33.6116 120.247 33.7552 120.393 33.9499C120.544 34.1397 120.62 34.3952 120.62 34.7165C120.62 34.9744 120.549 35.2178 120.408 35.4465C120.272 35.6753 120.07 35.8603 119.802 36.0014C119.539 36.1377 119.228 36.2058 118.868 36.2058Z" fill="#BF3448"/>
<path d="M128.822 31.0806V31.7596H127.472V36.1547H126.639V31.7596H125.281V31.0806H128.822Z" fill="#BF3448"/>
<path d="M136.667 35.118H134.542L134.177 36.1547H133.308L135.126 31.0733H136.09L137.908 36.1547H137.032L136.667 35.118ZM136.433 34.439L135.608 32.0808L134.776 34.439H136.433Z" fill="#BF3448"/>
<path d="M145.919 31.0806V31.7596H144.568V36.1547H143.736V31.7596H142.378V31.0806H145.919Z" fill="#BF3448"/>
<path d="M151.537 31.7523V33.2417H153.289V33.9207H151.537V35.4757H153.508V36.1547H150.704V31.0733H153.508V31.7523H151.537Z" fill="#BF3448"/>
</svg>
