<svg width="249" height="121" viewBox="0 0 249 121" fill="none" xmlns="http://www.w3.org/2000/svg">
<path fill-rule="evenodd" clip-rule="evenodd" d="M0.893433 2.16689C0.476404 2.8417 0.504746 4.36001 0.958214 5.54091C1.59253 7.19283 3.76945 7.68679 10.4257 7.68679H19.0686L18.3628 113.631L9.59031 114.306C2.99207 114.813 0.817855 115.483 0.817855 117.005C0.817855 118.727 4.99084 119.083 28.8222 119.394C56.141 119.75 56.8266 119.692 56.8266 117.032C56.8266 114.576 55.9561 114.306 48.0541 114.306H39.2817V58.5738L51.0354 59.4766C69.4009 60.8883 72.2054 64.0963 74.443 86.2529C76.7778 109.364 79.3016 115.141 88.8366 119.204C98.1934 123.19 117.022 120.039 115.934 114.669C115.44 112.233 114.007 112.098 105.87 113.724C99.5066 114.995 97.5686 111.01 95.9166 93.2654C95.1636 85.1664 93.8828 76.4156 93.0717 73.8176C91.054 67.3584 84.5192 60.8114 77.3582 58.0771L71.3929 55.799L76.018 53.4263C97.7238 42.2907 96.4308 14.694 73.7061 4.11168C67.2172 1.08991 65.6503 0.964394 34.3003 0.952248C16.1332 0.94415 1.31586 1.48399 0.893433 2.16689ZM123.512 3.97537C123.899 6.70293 124.802 7.05248 132.379 7.41417L140.814 7.815V114.306H132.041C124.169 114.306 123.269 114.582 123.269 117.005C123.269 119.617 124.169 119.704 150.936 119.704C177.477 119.704 178.603 119.598 178.603 117.07C178.603 114.78 177.497 114.381 170.168 114.033L161.733 113.631L160.998 63.0207H210.993V114.306H202.221C194.349 114.306 193.448 114.582 193.448 117.005C193.448 119.617 194.349 119.704 221.115 119.704C247.882 119.704 248.782 119.617 248.782 117.005C248.782 114.582 247.882 114.306 240.01 114.306H231.237V7.815L239.672 7.41417C247.249 7.05248 248.152 6.70293 248.539 3.97537L248.97 0.938751H193.261L193.691 3.97537C194.079 6.70293 194.982 7.05248 202.558 7.41417L210.993 7.815V56.2727H161.058V7.68679H169.83C178.288 7.68679 178.603 7.56533 178.603 4.31277V0.938751H123.081L123.512 3.97537ZM40.2939 7.10916C39.7365 7.67464 39.2817 18.4486 39.2817 31.0526V53.9689L49.4712 53.1078C55.0748 52.6341 60.8376 51.6165 62.2777 50.8459C67.1187 48.2547 69.525 41.4958 69.4751 30.6301C69.4211 19.0073 66.9419 12.849 61.1048 9.82997C56.7078 7.55588 41.7758 5.60435 40.2939 7.10916Z" fill="#BF3448"/>
</svg>
