<svg width="24" height="12" viewBox="0 0 24 12" fill="none" xmlns="http://www.w3.org/2000/svg">
<path d="M5.54672 5.32198V6.89609H11.2685V0H4.49732C3.67279 0 2.99817 0.674618 2.99817 1.49915V3.3481H3.54786C4.67222 3.3481 5.54672 4.22261 5.54672 5.32198Z" fill="#FE753F"/>
<path d="M18.1897 5.32198C18.1897 4.22261 19.0891 3.3481 20.1635 3.3481H20.7132V1.49915C20.7132 0.674618 20.0386 0 19.2141 0H12.4679V6.89609H18.1897V5.32198Z" fill="#FE753F"/>
<path d="M21.7627 3H20.1636C19.7138 3 19.364 3.3498 19.364 3.79955V6.32312C19.364 6.47303 19.2641 6.57297 19.1142 6.57297H4.62238C4.47246 6.57297 4.37252 6.47303 4.37252 6.32312V3.79955C4.37252 3.3498 4.02272 3 3.57297 3H1.97388C0.89949 3 0 3.8745 0 4.97388C0 6.04827 0.874504 6.94776 1.97388 6.94776V8.94663C1.97388 9.74617 2.59853 10.3958 3.37309 10.4208V11.2203C3.37309 11.5452 3.64793 11.82 3.97275 11.82H5.34697C5.67178 11.82 5.94663 11.5452 5.94663 11.2203V10.4208H17.8399V11.2203C17.8399 11.5452 18.1147 11.82 18.4395 11.82H19.8138C20.1386 11.82 20.4134 11.5452 20.4134 11.2203V10.3958C21.188 10.3458 21.8126 9.72119 21.8126 8.92164V6.92278C22.887 6.92278 23.7865 6.04827 23.7865 4.94889C23.7365 3.8745 22.862 3 21.7627 3Z" fill="#FE753F"/>
</svg>
